HIERARCHY
ROOT Hips
{
	OFFSET 0.00000 0.00000 0.00000
	CHANNELS 6 Xposition Yposition Zposition Zrotation Yrotation Xrotation 
	JOINT LHipJoint
	{
		OFFSET 0 0 0
		CHANNELS 3 Zrotation Yrotation Xrotation
		JOINT LeftUpLeg
		{
			OFFSET 1.53794 -1.55850 0.93568
			CHANNELS 3 Zrotation Yrotation Xrotation
			JOINT LeftLeg
			{
				OFFSET 2.28545 -6.27922 0.00000
				CHANNELS 3 Zrotation Yrotation Xrotation
				JOINT LeftFoot
				{
					OFFSET 2.37329 -6.52057 0.00000
					CHANNELS 3 Zrotation Yrotation Xrotation
					JOINT LeftToeBase
					{
						OFFSET 0.14846 -0.40788 2.09160
						CHANNELS 3 Zrotation Yrotation Xrotation
						End Site
						{
							OFFSET 0.00000 -0.00000 1.07536
						}
					}
				}
			}
		}
	}
	JOINT RHipJoint
	{
		OFFSET 0 0 0
		CHANNELS 3 Zrotation Yrotation Xrotation
		JOINT RightUpLeg
		{
			OFFSET -1.78290 -1.55850 0.93568
			CHANNELS 3 Zrotation Yrotation Xrotation
			JOINT RightLeg
			{
				OFFSET -2.24144 -6.15831 0.00000
				CHANNELS 3 Zrotation Yrotation Xrotation
				JOINT RightFoot
				{
					OFFSET -2.35091 -6.45907 0.00000
					CHANNELS 3 Zrotation Yrotation Xrotation
					JOINT RightToeBase
					{
						OFFSET -0.14428 -0.39641 2.07944
						CHANNELS 3 Zrotation Yrotation Xrotation
						End Site
						{
							OFFSET -0.00000 -0.00000 1.06864
						}
					}
				}
			}
		}
	}
	JOINT LowerBack
	{
		OFFSET 0 0 0
		CHANNELS 3 Zrotation Yrotation Xrotation
		JOINT Spine
		{
			OFFSET -0.08841 2.11430 -0.15818
			CHANNELS 3 Zrotation Yrotation Xrotation
			JOINT Spine1
			{
				OFFSET -0.00033 2.12605 -0.08097
				CHANNELS 3 Zrotation Yrotation Xrotation
				JOINT Neck
				{
					OFFSET 0 0 0
					CHANNELS 3 Zrotation Yrotation Xrotation
					JOINT Neck1
					{
						OFFSET 0.04431 1.59447 0.43193
						CHANNELS 3 Zrotation Yrotation Xrotation
						JOINT Head
						{
							OFFSET 0.00455 1.62017 -0.58852
							CHANNELS 3 Zrotation Yrotation Xrotation
							End Site
							{
								OFFSET -0.00920 1.72955 -0.25850
							}
						}
					}
				}
				JOINT LeftShoulder
				{
					OFFSET 0 0 0
					CHANNELS 3 Zrotation Yrotation Xrotation
					JOINT LeftArm
					{
						OFFSET 2.86490 1.49927 -0.33774
						CHANNELS 3 Zrotation Yrotation Xrotation
						JOINT LeftForeArm
						{
							OFFSET 4.87408 -0.00000 0.00000
							CHANNELS 3 Zrotation Yrotation Xrotation
							JOINT LeftHand
							{
								OFFSET 2.76729 -0.00000 0.00000
								CHANNELS 3 Zrotation Yrotation Xrotation
								JOINT LeftFingerBase
								{
									OFFSET 0 0 0
									CHANNELS 3 Zrotation Yrotation Xrotation
									JOINT LeftHandIndex1
									{
										OFFSET 0.98922 -0.00000 0.00000
										CHANNELS 3 Zrotation Yrotation Xrotation
										End Site
										{
											OFFSET 0.79753 -0.00000 0.00000
										}
									}
								}
								JOINT LThumb
								{
									OFFSET 0 0 0
									CHANNELS 3 Zrotation Yrotation Xrotation
									End Site
									{
										OFFSET 0.80972 -0.00000 0.80972
									}
								}
							}
						}
					}
				}
				JOINT RightShoulder
				{
					OFFSET 0 0 0
					CHANNELS 3 Zrotation Yrotation Xrotation
					JOINT RightArm
					{
						OFFSET -2.94414 1.45463 -0.25291
						CHANNELS 3 Zrotation Yrotation Xrotation
						JOINT RightForeArm
						{
							OFFSET -4.71404 -0.00000 0.00000
							CHANNELS 3 Zrotation Yrotation Xrotation
							JOINT RightHand
							{
								OFFSET -2.83468 -0.00000 0.00000
								CHANNELS 3 Zrotation Yrotation Xrotation
								JOINT RightFingerBase
								{
									OFFSET 0 0 0
									CHANNELS 3 Zrotation Yrotation Xrotation
									JOINT RightHandIndex1
									{
										OFFSET -0.86820 -0.00000 0.00000
										CHANNELS 3 Zrotation Yrotation Xrotation
										End Site
										{
											OFFSET -0.69996 -0.00000 0.00000
										}
									}
								}
								JOINT RThumb
								{
									OFFSET 0 0 0
									CHANNELS 3 Zrotation Yrotation Xrotation
									End Site
									{
										OFFSET -0.71065 -0.00000 0.71065
									}
								}
							}
						}
					}
				}
			}
		}
	}
}
MOTION
Frames: 6
Frame Time: 0.0333333
0.00 0.00 0.00 0 0 0 0 0 0 -21 0 0 0 0 0 0 0 0 0 0 0 0 0 0 21 0 0 0 0 0 0 0 0 0 0 0 0 0 0 0 0 0 0 0 0 0 0 -16 0 0 21 0 0 11 0 0 0 -8 0 0 0 0 0 0 0 0 0 0 0 0 0 0 0 0 0 0 0 0 8 0 0 0 0 0 0 0 0 0 0 0 0 0 0 0 0 0
0.00 0.00 0.00 178.7990 2.6269 -180.2730 0.0000 0.0000 0.0000 -22.9968 2.1001 -9.8695 14.4406 19.2423 73.5456 0.1899 19.6585 15.3848 0.0168 -0.8368 -2.3000 0.0000 0.0000 0.0000 21.1369 11.2678 -24.8687 -4.7563 -13.1040 39.7591 0.6240 -13.9380 -7.0259 -0.9500 6.2072 -17.3867 -3.6044 -2.5491 1.8182 0.6194 -3.2825 3.4582 2.6281 -1.6868 2.7849 4.6125 1.5334 -28.5132 -5.5257 5.8660 40.4302 -1.8090 3.0508 21.6602 0.0000 0.0000 0.0000 -74.2023 14.0798 55.2766 102.6114 -59.3904 -70.8994 -0.0000 -0.0000 23.5419 16.2663 2.2631 0.6601 -7.1250 0.0000 -0.0000 -8.3124 32.2629 2.6157 0.0000 0.0000 0.0000 68.5230 -38.6093 36.8784 -59.4285 56.1557 -33.8660 0.0000 0.0000 5.6311 -15.4699 -2.9317 0.8110 7.1250 -0.0000 -0.0000 9.0250 -32.9266 2.6984
0.00 0.00 0.00 179.6460 2.0515 -181.9470 0.0000 0.0000 0.0000 -20.0366 -1.5284 -20.1201 19.3006 19.9883 87.9546 -1.0191 22.3779 6.6779 0.0217 -0.9514 -2.6151 0.0000 0.0000 0.0000 23.2513 9.3612 -22.6210 -6.5827 -14.9701 47.2777 0.4946 -15.2864 -15.2832 -1.0438 6.4973 -18.2343 -3.1266 -1.5261 3.9654 0.3725 -1.8419 4.4609 2.1686 -0.9046 2.4885 4.6968 1.1177 -29.2918 -5.1535 4.8150 40.3025 -1.9086 2.6950 21.6719 -0.0000 0.0000 0.0000 -76.7766 15.4300 48.9663 83.7116 -59.8500 -54.5568 -0.0000 -0.0000 23.5534 16.9996 5.0807 1.5509 -7.1250 0.0000 -0.0000 -8.0404 35.1985 1.9516 -0.0000 0.0000 0.0000 74.8861 -26.8427 36.2003 -53.4528 54.2966 -28.9554 0.0000 0.0000 10.0941 -16.3733 -1.9360 0.5687 7.1250 -0.0000 -0.0000 8.1935 -31.9283 2.6443
0.00 0.00 0.00 180.8170 -1.3693 -181.5210 0.0000 0.0000 0.0000 -14.9237 -13.3647 -39.2449 15.6936 19.5494 77.3174 -2.1434 25.9609 -1.8537 0.0465 -1.3916 -3.8271 0.0000 0.0000 0.0000 25.7464 3.7455 -17.2789 -7.7228 -15.9116 51.5582 0.0434 -16.4237 -22.8739 -1.4186 7.5324 -21.3026 -2.5222 1.3947 6.3878 -0.1203 1.2990 5.4638 1.2231 0.3830 1.9968 0.6247 1.3871 -30.3347 -0.2933 -1.7055 41.9485 -1.2188 -1.5650 23.4022 0.0000 -0.0000 0.0000 -75.3929 15.0391 45.4304 54.9576 -54.8093 -30.1813 -0.0000 -0.0000 19.3920 16.6874 7.2376 2.1629 -7.1250 0.0000 -0.0000 -8.5986 37.4073 1.6212 0.0000 -0.0000 0.0000 83.6989 -8.9996 38.4640 -51.4516 53.5645 -27.3378 0.0000 0.0000 12.9229 -16.4170 0.2442 -0.0719 7.1250 -0.0000 -0.0000 7.9612 -29.6791 3.0010
0.00 0.00 0.00 181.1020 -3.8136 -180.0270 0.0000 0.0000 0.0000 -14.0807 -16.2283 -42.5398 9.7217 17.2503 58.5540 -1.3801 21.7388 0.3375 0.1347 -2.3652 -6.5160 0.0000 0.0000 0.0000 26.4060 2.9345 -16.1258 -8.1307 -16.2145 53.0320 0.5036 -18.1051 -20.6898 -1.8946 8.6431 -24.6851 -2.3062 2.2971 7.3177 -0.4162 2.4544 5.5840 0.7132 0.9630 1.5843 -0.2424 -0.1822 -30.8217 1.3069 -4.4492 41.8039 -0.9247 -2.3704 23.5518 0.0000 -0.0000 0.0000 -73.8171 11.9261 46.6001 45.8450 -51.1758 -22.8952 -0.0000 -0.0000 20.4875 15.4328 6.5703 1.8092 -7.1250 0.0000 -0.0000 -9.5472 36.6466 1.9837 0.0000 -0.0000 0.0000 85.1695 -4.5716 38.0151 -50.3752 53.1457 -26.4741 0.0000 0.0000 11.7550 -15.4285 0.3412 -0.0942 7.1250 -0.0000 -0.0000 8.7237 -29.5712 3.3169
0.00 0.00 0.00 180.3060 -6.5611 -179.3750 0.0000 0.0000 0.0000 -17.8329 -15.9069 -41.9910 5.6596 14.0901 43.5996 -0.0090 12.7388 8.8204 0.1281 -2.3073 -6.3558 0.0000 0.0000 0.0000 24.4798 0.9048 -22.5853 -12.9868 -18.7774 69.0845 1.2420 -19.4328 -10.1375 -1.8956 8.6452 -24.6916 -3.0193 2.9082 10.8316 -0.5291 2.8331 6.7816 0.8581 1.0143 0.8714 -1.4267 -1.7353 -32.2264 2.0721 -6.0351 40.7820 -0.6771 -2.8401 23.3132 -0.0000 0.0000 0.0000 -75.6441 5.2656 44.3852 34.2639 -44.2793 -14.2970 -0.0000 -0.0000 21.1525 14.2850 6.2142 1.5788 -7.1250 0.0000 -0.0000 -10.4446 36.2192 2.2857 -0.0000 0.0000 0.0000 83.0906 0.8309 38.3750 -46.3141 51.3962 -23.2612 0.0000 0.0000 12.7897 -14.0428 0.1840 -0.0460 7.1250 -0.0000 -0.0000 9.8170 -29.7183 3.7083
